# xmcd
# 
# Track frame offsets:
#     150
#     43792
#     68945
#     92237
#     126295
# 
# Disc length: 2374
# 
# Revision: 1
# Processed by: cddbd v1.5.2PL0 Copyright (c) Steve Scherf et al.
# Submitted via: BonkEnc v1.0.6
# 
DISCID=45094405
DTITLE=John Abercrombie - Arcade
DYEAR=1978
DGENRE=Contemporary Jazz
TTITLE0=Arcade
TTITLE1=Nightlake
TTITLE2=Paramour
TTITLE3=Neptune
TTITLE4=Alchemy
EXTD=
EXTT0=
EXTT1=
EXTT2=
EXTT3=
EXTT4=
PLAYORDER=
